<?xml version="1.0" standalone="no"?>
<!DOCTYPE svg PUBLIC "-//W3C//DTD SVG 20010904//EN"
 "http://www.w3.org/TR/2001/REC-SVG-20010904/DTD/svg10.dtd">
<svg version="1.0" xmlns="http://www.w3.org/2000/svg"
 width="227.000000pt" height="238.000000pt" viewBox="0 0 227.000000 238.000000"
 preserveAspectRatio="xMidYMid meet">
<metadata>
Created by potrace 1.10, written by Peter Selinger 2001-2011
</metadata>
<g transform="translate(0.000000,238.000000) scale(0.100000,-0.100000)"
fill="#000000" stroke="none">
<path d="M745 2281 c-4 -7 -5 -13 -4 -15 2 -1 50 -31 107 -65 96 -59 130 -92
80 -77 -13 4 -70 9 -128 12 -85 4 -115 2 -159 -13 -52 -17 -80 -43 -47 -43 9
0 35 -9 59 -19 92 -42 140 -61 154 -61 7 0 16 -7 19 -15 8 -20 -32 -52 -76
-60 -104 -19 -138 -45 -86 -65 13 -5 27 -13 30 -19 3 -5 -21 -47 -53 -93 -33
-45 -81 -123 -107 -172 -34 -65 -64 -105 -114 -152 -40 -39 -81 -90 -101 -127
-29 -54 -33 -72 -33 -133 0 -63 4 -81 37 -145 l37 -74 0 -256 c0 -240 1 -257
19 -273 46 -42 170 -59 255 -35 47 13 86 50 86 82 0 48 -89 97 -176 97 l-44 0
0 135 c0 74 2 135 5 135 2 0 33 -15 67 -34 35 -19 115 -50 178 -69 l115 -35 8
-124 c4 -67 6 -157 5 -198 l-3 -75 -76 -7 c-45 -4 -96 -16 -123 -29 -85 -40
-122 -112 -73 -143 73 -48 430 -48 505 0 30 20 28 56 -7 96 l-29 33 -8 195
c-5 107 -9 202 -9 210 0 12 19 15 108 16 59 1 109 -1 111 -5 2 -3 -1 -98 -6
-211 -8 -198 -9 -205 -33 -230 -14 -14 -27 -39 -31 -56 -5 -25 -1 -33 19 -47
65 -43 403 -50 483 -11 50 24 56 58 19 102 -38 45 -102 72 -191 80 l-79 7 3
180 c1 99 4 190 7 201 3 14 15 24 32 27 72 13 155 41 233 80 47 23 89 42 93
42 5 0 8 -58 8 -130 l0 -130 -58 -6 c-137 -15 -203 -83 -138 -143 68 -63 240
-64 310 -3 l26 22 2 260 2 260 35 70 c69 138 41 268 -84 386 -34 32 -69 66
-79 76 -11 10 -50 72 -89 138 -38 66 -85 139 -104 162 -37 45 -37 59 2 73 48
19 23 44 -59 59 -57 10 -106 36 -107 56 0 11 215 105 238 105 27 0 5 25 -34
39 -50 18 -216 26 -272 13 -23 -5 -44 -7 -47 -2 -4 6 81 64 173 116 65 37 34
49 -90 36 -82 -9 -162 -31 -265 -73 -28 -11 -38 -11 -65 0 -18 8 -71 26 -117
42 -95 32 -253 50 -266 30z m171 -37 c37 -8 107 -31 157 -51 l89 -35 62 26
c140 59 290 93 250 57 -8 -7 -125 -86 -190 -128 -18 -12 -18 -13 -1 -27 15
-12 25 -12 70 0 72 19 292 30 301 15 4 -7 -4 -15 -21 -22 -97 -36 -203 -85
-203 -94 1 -5 21 -27 46 -49 34 -28 57 -40 90 -44 51 -5 63 -16 34 -32 -11 -6
-20 -15 -20 -20 0 -5 27 -46 60 -92 32 -46 84 -128 114 -183 43 -78 66 -109
106 -139 102 -77 149 -163 150 -268 0 -57 -5 -76 -35 -133 l-36 -66 1 -257 c1
-234 0 -257 -16 -269 -87 -63 -313 -26 -275 45 15 28 73 46 151 47 l65 1 3
173 c2 95 1 180 -2 188 -5 12 -12 10 -37 -11 -59 -50 -191 -104 -355 -146
l-41 -10 -7 -157 c-4 -87 -9 -191 -13 -230 l-6 -73 69 0 c127 0 244 -52 244
-109 0 -46 -433 -52 -479 -6 -13 13 -11 19 18 49 l33 34 9 191 c6 105 9 211 7
236 l-3 46 -138 1 c-76 0 -140 -2 -142 -4 -2 -2 -1 -108 4 -236 l7 -232 32
-31 c18 -17 32 -37 32 -45 0 -48 -432 -56 -479 -9 -15 15 -13 19 21 50 44 41
89 55 194 62 l81 5 -4 157 c-2 86 -6 189 -9 228 l-6 73 -41 10 c-152 39 -282
93 -354 146 -17 13 -33 21 -35 17 -2 -5 -2 -90 0 -190 l3 -181 52 4 c59 5 144
-20 161 -48 32 -53 -126 -100 -225 -67 -71 24 -69 14 -69 302 0 235 -2 261
-18 285 -94 135 -58 308 86 418 33 25 60 62 104 141 33 60 89 147 124 195 l64
88 -25 16 c-33 21 -25 30 30 36 34 4 56 15 89 44 24 22 45 44 45 49 1 9 -104
59 -204 96 l-30 11 23 11 c22 10 174 1 330 -19 34 -5 42 -3 42 10 0 8 -10 21
-22 27 -45 23 -188 123 -188 131 0 10 -2 11 76 -8z"/>
<path d="M821 1698 c-42 -14 -121 -91 -144 -140 -26 -55 -40 -145 -32 -208 29
-238 254 -349 404 -198 146 148 123 426 -45 524 -50 29 -132 39 -183 22z m144
-39 c100 -47 150 -146 143 -284 -4 -68 -9 -91 -35 -136 -16 -29 -47 -67 -67
-84 -34 -27 -45 -30 -110 -30 -65 0 -77 3 -110 29 -52 39 -91 104 -106 177
-29 136 38 285 150 333 48 21 83 20 135 -5z"/>
<path d="M835 1599 c-75 -44 -108 -105 -108 -204 0 -100 32 -159 107 -197 73
-37 154 -3 201 84 75 137 2 314 -133 325 -26 2 -56 -2 -67 -8z m125 -48 c93
-68 93 -244 1 -310 -93 -66 -203 20 -203 159 0 78 30 130 97 169 25 14 72 6
105 -18z"/>
<path d="M841 1463 c-32 -39 -35 -68 -14 -110 44 -91 143 -55 143 53 0 74 -86
112 -129 57z m87 -36 c27 -56 -12 -112 -56 -81 -24 17 -29 62 -11 95 15 28 51
21 67 -14z"/>
<path d="M1369 1696 c-47 -17 -85 -46 -121 -95 -43 -58 -58 -113 -58 -207 0
-71 4 -94 28 -147 44 -97 137 -167 222 -167 101 0 197 86 234 210 71 238 -109
476 -305 406z m150 -42 c159 -87 186 -355 49 -479 -48 -44 -76 -55 -137 -55
-84 0 -175 82 -202 184 -19 70 -7 184 26 243 33 61 57 86 111 113 53 26 98 25
153 -6z"/>
<path d="M1375 1594 c-71 -37 -105 -101 -105 -199 0 -77 21 -126 74 -173 83
-73 190 -41 242 72 79 171 -65 376 -211 300z m113 -33 c55 -28 82 -83 82 -165
0 -76 -14 -111 -60 -150 -61 -51 -149 -25 -189 56 -47 98 -12 226 74 264 40
18 50 17 93 -5z"/>
<path d="M1402 1483 c-19 -7 -42 -58 -42 -92 0 -45 45 -93 83 -89 66 7 97 110
48 162 -23 25 -57 32 -89 19z m68 -42 c17 -32 12 -76 -11 -97 -21 -19 -21 -18
-46 10 -25 29 -25 64 -1 93 16 19 46 16 58 -6z"/>
<path d="M390 1071 c0 -5 34 -40 74 -79 159 -151 396 -227 706 -226 174 0 258
13 403 59 135 43 220 93 315 187 69 68 67 85 -3 43 -58 -33 -222 -87 -350
-114 -193 -40 -522 -43 -715 -6 -148 29 -325 88 -382 127 -28 19 -48 23 -48 9z
m245 -121 c33 -12 116 -33 185 -47 110 -23 150 -26 340 -26 241 -1 367 17 540
73 104 34 100 33 100 21 0 -14 -132 -79 -223 -111 -133 -46 -234 -61 -412 -61
-133 0 -179 4 -275 25 -120 26 -226 64 -304 110 -89 52 -68 59 49 16z"/>
</g>
</svg>
